Coordinates
version=1
nRows=11
nColumns=63
inDegrees=yes

Units are S.I. units (second, meters, Newtons, ...)
If the header above contains a line with 'inDegrees', this indicates whether rotational values are in degrees (yes) or radians (no).

endheader
time	pelvis_tilt	pelvis_list	pelvis_rotation	pelvis_tx	pelvis_ty	pelvis_tz	hip_flexion_r	hip_adduction_r	hip_rotation_r	knee_angle_r	knee_angle_r_beta	ankle_angle_r	subtalar_angle_r	mtp_angle_r	hip_flexion_l	hip_adduction_l	hip_rotation_l	knee_angle_l	knee_angle_l_beta	ankle_angle_l	subtalar_angle_l	mtp_angle_l	L5_S1_Flex_Ext	L5_S1_Lat_Bending	L5_S1_axial_rotation	L4_L5_Flex_Ext	L4_L5_Lat_Bending	L4_L5_axial_rotation	L3_L4_Flex_Ext	L3_L4_Lat_Bending	L3_L4_axial_rotation	L2_L3_Flex_Ext	L2_L3_Lat_Bending	L2_L3_axial_rotation	L1_L2_Flex_Ext	L1_L2_Lat_Bending	L1_L2_axial_rotation	L1_T12_Flex_Ext	L1_T12_Lat_Bending	L1_T12_axial_rotation	Abs_r3	Abs_r2	Abs_r1	Abs_t1	Abs_t2	neck_flexion	neck_bending	neck_rotation	arm_flex_r	arm_add_r	arm_rot_r	elbow_flex_r	pro_sup_r	wrist_flex_r	wrist_dev_r	arm_flex_l	arm_add_l	arm_rot_l	elbow_flex_l	pro_sup_l	wrist_flex_l	wrist_dev_l
      1.78260870	     -4.66379674	     -2.26401763	     93.72076621	      0.07413867	      0.97487546	      0.42345532	     -8.33631305	     -2.57955847	      0.93763919	      5.61593786	      0.09801661	     24.85003295	      4.89525159	      0.00000000	     -9.50423024	      3.39019734	     -5.41087621	      0.57916722	      0.01010837	     28.41974503	      6.93756578	      0.00000000	     -0.18470234	      0.02349985	      0.98906459	     -0.34301071	      0.03125480	      1.05088112	     -0.30344747	      0.05713753	      1.05088112	     -0.21109630	      0.05713753	      0.86543151	     -0.17151459	      0.04792089	      0.80361498	     -0.10553892	      0.03640126	      0.74179844	     -1.31931032	      0.26583497	      5.50088052	      0.00000000	      0.00000000	     15.79920337	      1.67686093	      4.21932740	      3.28722346	     -9.36310560	    159.23843998	      0.63313422	      2.81933565	    -18.50486424	    -18.63626863	     -5.18104401	    -19.55388575	     51.62431137	     32.52835379	     87.92665594	    -10.40905835	     -0.39667273
      1.80434783	     -4.80260130	     -2.14994807	     93.56202874	      0.07429002	      0.97527709	      0.42313083	     -8.38583092	     -2.74737448	      0.58187650	      5.73167360	      0.10003658	     24.98090946	      5.38636216	      0.00000000	     -9.64335689	      3.54884617	     -5.24537902	      0.60871020	      0.01062400	     28.75870010	      6.82605160	      0.00000000	     -0.17840060	      0.01793108	      1.00246424	     -0.33130776	      0.02384834	      1.06511826	     -0.29309435	      0.04359764	      1.06511826	     -0.20389405	      0.04359764	      0.87715621	     -0.16566280	      0.03656507	      0.81450220	     -0.10193811	      0.02777525	      0.75184818	     -1.27429767	      0.20284001	      5.57540537	      0.00000000	      0.00000000	     15.48609930	      1.60356638	      4.36903927	      3.57695816	     -9.14031568	    154.96221313	      0.67892110	      2.26847899	    -14.04191669	    -19.37054088	     -4.77364943	    -19.56547745	     50.95056427	     33.31460657	     88.08528927	     -7.76222200	      2.78562148
      1.82608696	     -4.91032774	     -2.00289829	     93.38422051	      0.07434665	      0.97556613	      0.42264350	     -8.47552222	     -2.89347705	      0.20565963	      5.85128064	      0.10212411	     25.18015022	      5.94390283	      0.00000000	     -9.84906878	      3.68330535	     -4.71941009	      0.60486642	      0.01055691	     29.05157604	      6.23897757	      0.00000000	     -0.17197803	      0.01922148	      1.02523578	     -0.31938039	      0.02556457	      1.08931301	     -0.28254270	      0.04673512	      1.08931301	     -0.19655369	      0.04673512	      0.89708130	     -0.15969880	      0.03919645	      0.83300407	     -0.09826824	      0.02977408	      0.76892683	     -1.22842185	      0.21743727	      5.70205381	      0.00000000	      0.00000000	     15.27866539	      1.44285426	      4.42587408	      3.84089525	     -8.90467162	    150.28100144	      0.77565951	      1.93666114	     -9.32858929	    -19.78001841	     -4.29166008	    -19.55554405	     50.81084710	     34.07416726	     88.35623766	     -4.90554967	      6.17393684
      1.84782609	     -4.92505211	     -1.81763928	     93.27956150	      0.07405047	      0.97584713	      0.42208591	     -8.60935456	     -2.94289743	     -0.09849791	      5.97438608	      0.10427271	     25.32591250	      6.39272381	      0.00000000	    -10.11379549	      3.71884613	     -3.74949583	      0.59213875	      0.01033477	     29.21696421	      5.21305733	      0.00000000	     -0.16756445	      0.03373565	      1.04871356	     -0.31118395	      0.04486841	      1.11425815	     -0.27529164	      0.08202485	      1.11425815	     -0.19150941	      0.08202485	      0.91762436	     -0.15560035	      0.06879373	      0.85207976	     -0.09574633	      0.05225652	      0.78653517	     -1.19689614	      0.38162438	      5.83263018	      0.00000000	      0.00000000	     15.09600006	      1.48577436	      4.59886332	      4.06125536	     -8.72078572	    147.10916682	      0.87623410	      1.76173442	     -5.60655789	    -19.59631766	     -3.43056987	    -19.52565795	     52.27373864	     34.51539901	     88.61619363	     -2.18910713	      9.27367317
      1.86956522	     -4.85643292	     -1.63472768	     93.31564006	      0.07330046	      0.97611563	      0.42144809	     -8.77024296	     -2.88091834	     -0.24182276	      6.07705775	      0.10606467	     25.31771880	      6.37710840	      0.00000000	    -10.39016594	      3.65751610	     -3.05390440	      0.57821691	      0.01009179	     29.36171127	      4.70048224	      0.00000000	     -0.16281986	      0.06186245	      1.04820269	     -0.30237277	      0.08227706	      1.11371536	     -0.26749676	      0.15041236	      1.11371536	     -0.18608682	      0.15041236	      0.91717736	     -0.15119453	      0.12614991	      0.85166469	     -0.09303527	      0.09582493	      0.78615202	     -1.16300601	      0.69980039	      5.82978892	      0.00000000	      0.00000000	     15.06125375	      1.67922267	      5.05955617	      4.23069002	     -8.62989173	    146.02574388	      0.92528827	      1.58075775	     -3.19766535	    -19.12939765	     -2.24545581	    -19.40493558	     55.28812628	     34.53106154	     88.81409411	     -0.25586327	     11.37797565
      1.89130435	     -4.68186471	     -1.45085580	     93.34037496	      0.07236404	      0.97640295	      0.42119799	     -8.87449624	     -2.71807390	     -0.28441901	      6.22381296	      0.10862603	     25.25167725	      6.20891362	      0.00000000	    -10.63147466	      3.49975869	     -2.31742454	      0.55524629	      0.00969088	     29.47073074	      4.03490286	      0.00000000	     -0.16389165	      0.10662337	      1.07902225	     -0.30436319	      0.14180908	      1.14646114	     -0.26925759	      0.25924406	      1.14646114	     -0.18731177	      0.25924406	      0.94414447	     -0.15218979	      0.21742638	      0.87670558	     -0.09364769	      0.16515960	      0.80926669	     -1.17066168	      1.20614488	      6.00119806	      0.00000000	      0.00000000	     15.21821127	      1.61104660	      5.24494768	      4.28471981	     -8.67739858	    144.86238525	      0.97619672	      1.54684884	     -1.28857941	    -18.77017140	     -0.70310088	    -19.13837958	     59.37271825	     34.26306406	     88.94032713	      1.07130987	     12.58750577
      1.91304348	     -4.48709591	     -1.24632234	     93.29815552	      0.07142762	      0.97684470	      0.42106408	     -8.96225608	     -2.54613475	     -0.09679958	      6.42565596	      0.11214885	     25.11707094	      5.87951836	      0.00000000	    -10.86076213	      3.35238097	     -1.73501231	      0.54263602	      0.00947079	     29.43068216	      3.25364235	      0.00000000	     -0.16667233	      0.15764176	      1.17012023	     -0.30952718	      0.20966355	      1.24325275	     -0.27382597	      0.38329019	      1.24325275	     -0.19048980	      0.38329019	      1.02385520	     -0.15477192	      0.32146309	      0.95072269	     -0.09523657	      0.24418709	      0.87759017	     -1.19052377	      1.78327517	      6.50785770	      0.00000000	      0.00000000	     15.54691082	      1.36289902	      5.04083534	      4.16819179	     -8.85305040	    143.38689838	      1.03320797	      1.60218010	      0.35025557	    -18.53426904	      1.22235611	    -18.76032689	     64.95869929	     33.63496335	     88.99194766	      1.05274181	     12.00528024
      1.93478261	     -4.29342256	     -1.01839620	     93.44794950	      0.07034693	      0.97746370	      0.42122745	     -9.10367300	     -2.33205367	     -0.02534146	      6.57167611	      0.11469739	     24.97523973	      5.44306235	      0.00000000	    -11.08102470	      3.16067491	     -1.23287531	      0.51533323	      0.00899426	     29.40521148	      2.86122156	      0.00000000	     -0.17708895	      0.20970287	      1.21586185	     -0.32887190	      0.27890482	      1.29185322	     -0.29093944	      0.50987157	      1.29185322	     -0.20239497	      0.50987157	      1.06387912	     -0.16444480	      0.42762610	      0.98788775	     -0.10118863	      0.32482975	      0.91189639	     -1.26492869	      2.37220085	      6.76225885	      0.00000000	      0.00000000	     15.93409624	      1.36208282	      5.13953766	      4.03573308	     -9.08749397	    142.38989527	      1.09026027	      1.71966844	      1.11027647	    -18.56540663	      3.20967346	    -18.22664679	     71.42080224	     32.63254038	     88.98212720	     -0.40173365	     10.15508964
      1.95652174	     -4.12436361	     -0.85413359	     93.79127664	      0.06919967	      0.97811809	      0.42162467	     -9.22691354	     -2.12285412	     -0.51668825	      6.63110461	      0.11573461	     24.95742220	      5.61531612	      0.00000000	    -11.18694266	      2.94340160	     -0.70439001	      0.51279380	      0.00894994	     29.41345899	      2.87443165	      0.00000000	     -0.17676292	      0.25612322	      1.19182272	     -0.32826641	      0.34064388	      1.26631164	     -0.29040380	      0.62273799	      1.26631164	     -0.20202234	      0.62273799	      1.04284488	     -0.16414204	      0.52228646	      0.96835596	     -0.10100233	      0.39673486	      0.89386704	     -1.26259984	      2.89731705	      6.62856041	      0.00000000	      0.00000000	     16.19971548	      1.51817976	      5.47831971	      3.94120355	     -9.32504094	    143.27930982	      1.08699569	      1.69772223	      0.51155442	    -18.67372428	      4.88345256	    -17.61709667	     77.80774910	     31.43856820	     88.95577161	     -2.91233404	      7.31035482
      1.97826087	     -4.00088426	     -0.63785240	     93.86212729	      0.06845095	      0.97883951	      0.42227679	     -9.23039985	     -2.04269136	     -1.21185666	      6.94979708	      0.12129684	     25.30419133	      6.52867110	      0.00000000	    -11.34458103	      2.82949141	     -0.39000615	      0.49645553	      0.00866478	     29.46151467	      2.85567993	      0.00000000	     -0.18944281	      0.29806116	      1.20259409	     -0.35181424	      0.39642134	      1.27775622	     -0.31123559	      0.72470591	      1.27775622	     -0.21651419	      0.72470591	      1.05226983	     -0.17591659	      0.60780632	      0.97710770	     -0.10824762	      0.46169674	      0.90194557	     -1.35317104	      3.37172746	      6.68846753	      0.00000000	      0.00000000	     16.43719061	      1.45640184	      5.57359192	      3.86553035	     -9.61229366	    143.43860434	      1.09708984	      1.80915611	      0.30678983	    -18.83343324	      6.30437248	    -16.89601960	     84.18069897	     30.02136947	     88.81864345	     -6.96193427	      3.44210760
      2.00000000	     -3.98646124	     -0.49286637	     93.90460188	      0.06817709	      0.97911536	      0.42252950	     -9.30258654	     -2.01292435	     -1.12994286	      7.02661736	      0.12263761	     25.64004486	      6.60654532	      0.00000000	    -11.45245388	      2.80797080	     -0.20206517	      0.47107877	      0.00822188	     29.62453103	      2.96606967	      0.00000000	     -0.18385507	      0.31815764	      1.16670099	     -0.34143725	      0.42314966	      1.23961980	     -0.30205549	      0.77356848	      1.23961980	     -0.21012796	      0.77356848	      1.02086336	     -0.17072782	      0.64878705	      0.94794455	     -0.10505479	      0.49282618	      0.87502574	     -1.31325837	      3.59906283	      6.48884089	      0.00000000	      0.00000000	     16.55081491	      1.55005913	      5.69132658	      3.87437145	     -9.75212758	    143.48622893	      1.16356721	      1.90353504	      0.27554519	    -18.74915120	      6.38225564	    -16.99405197	     84.36332696	     30.31404839	     88.87459759	     -7.06586689	      3.23527790
